<?xml version="1.0" encoding="UTF-8"?>
<svg width="500px" height="192px" viewBox="0 0 500 192" version="1.1" xmlns="http://www.w3.org/2000/svg" xmlns:xlink="http://www.w3.org/1999/xlink">
    <title>lemon8-logo-big</title>
    <g id="Support-2021" stroke="none" stroke-width="1" fill="none" fill-rule="evenodd" opacity="0.098757">
        <path d="M474.550996,35.5532072 C471.991267,38.0278714 467.641332,40.6198688 461.495846,43.2865327 C452.721161,38.753204 448.44604,33.8358756 448.670484,28.5025476 C448.862864,24.6198849 450.466035,21.6865545 453.522746,19.7825564 C456.574113,17.8412251 460.582039,16.9985593 465.546523,17.2278924 C474.513589,17.6492253 478.863524,21.0785551 478.558922,27.5905486 C478.4467,30.4065457 477.110724,33.0732097 474.550996,35.5532072 L474.550996,35.5532072 Z M468.287944,84.5398244 C465.006789,86.289156 460.582039,87.0144886 455.051101,86.7798222 C450.086618,86.5558224 446.196258,85.4464902 443.406741,83.5104921 C440.585162,81.5638274 439.249187,78.8971635 439.398816,75.6225001 C439.553789,72.5398365 440.734791,69.7558394 442.984573,67.2811752 C445.239699,64.7691777 449.130059,62.4065134 454.666341,60.1985157 C461.955421,63.8518453 466.957313,66.9025089 469.591856,69.3718397 C472.263806,71.8518372 473.519623,74.4065013 473.407401,76.9984987 C473.252428,80.305162 471.537036,82.8224928 468.255881,84.5718244 L468.293288,84.5398244 L468.287944,84.5398244 Z M479.242941,51.5105244 C486.270171,48.1611945 491.421691,44.4278649 494.702846,40.2358691 C497.984001,36.08654 499.742145,31.2865448 499.971932,25.8358837 C500.313942,18.4118912 497.52977,12.3532306 491.651479,7.74523526 C485.773188,3.09990661 477.794744,0.545242523 467.758898,0.0865763188 C455.580148,-0.484089772 445.848904,1.76657462 438.485009,6.83323618 C431.158521,11.8572311 427.262817,19.0998905 426.840649,28.5398809 C426.63758,32.9078765 427.572763,37.2545388 429.55535,41.1532015 C431.575345,45.1905308 434.632056,48.7265272 438.74686,51.7771908 C431.730318,55.1318541 426.573454,58.8651837 423.329706,62.9398462 C420.144741,66.8438423 418.301095,71.6598374 418.065963,76.6891657 C417.681203,84.7264909 420.620348,91.1264845 426.840649,95.8891463 C433.066293,100.651808 441.921137,103.318472 453.40518,103.846472 C461.576004,104.230471 468.747519,103.313139 475.010571,101.105141 C481.268279,98.8971433 486.190012,95.6598132 489.743706,91.3184843 C493.329464,86.9771553 495.237236,81.8731605 495.504431,75.9691664 C495.964007,66.0651764 490.545291,57.8731847 479.205534,51.4731911 L479.248285,51.5105244 L479.242941,51.5105244 Z M407.11631,140.267768 C375.437666,138.913103 343.71627,138.98777 312.048314,140.491768 C282.961461,141.8251 253.874608,144.225098 224.942729,147.654427 C202.963265,150.283758 181.015864,153.521088 159.223436,157.441084 C144.415486,160.107748 129.682352,163.041079 115.029375,166.433075 C107.585321,168.145073 100.029045,169.707739 92.6972134,171.915736 C92.6223988,171.915736 92.5475842,171.958403 92.4300184,171.995736 C89.645846,172.758402 86.0600885,175.307733 85.600513,178.433063 C85.1035302,181.670393 87.812888,184.87039 90.2550507,186.582388 C98.1586801,192.145049 108.766323,193.249048 117.92577,190.694384 C119.18693,190.353051 120.448091,190.011718 121.703907,189.707718 L126.171409,188.561053 C127.010401,188.374386 127.849394,188.145053 128.688386,187.953053 C142.277926,184.753057 155.942281,181.93706 169.68145,179.382395 C190.570758,175.499733 211.572289,172.225069 232.653978,169.558405 C245.404525,167.91574 258.149729,166.507742 270.937684,165.329076 L291.54911,163.574411 C292.313287,163.537078 293.034714,163.462411 293.798892,163.425078 C295.209682,163.345078 296.583064,163.233078 297.999198,163.158412 L309.066417,162.470412 C340.16792,160.721081 371.317518,160.299748 402.461773,161.254414 C406.507106,161.366414 410.552439,161.52108 414.560364,161.707747 C418.338502,161.862413 423.757218,160.950414 426.963558,158.69975 C429.330906,157.062418 431.313494,154.054421 430.132492,151.041091 C426.851336,142.742432 414.790152,140.566435 407.11631,140.267768 L407.11631,140.267768 Z M79.5672489,74.0225017 C81.3574557,68.3851741 84.4088231,65.1105107 88.6465365,64.1185117 C90.7092823,63.6225122 92.4994891,63.9318452 94.0278447,64.9558442 C95.5562004,65.9851765 96.5448221,67.6225082 97.0418048,69.7931727 C98.0357704,74.059835 96.9295829,78.2518308 93.7606497,82.3638266 C90.5917165,86.4811558 85.7822057,90.1344855 79.3321173,93.2971489 L79.2573027,92.9558159 C77.6541324,85.947823 77.728947,79.6224961 79.5244977,73.9851684 L79.561905,74.0225017 L79.5672489,74.0225017 Z M284.292092,45.99053 C287.188487,41.2652014 290.971968,38.7905373 295.701321,38.5238709 L296.57772,38.5238709 C296.310525,40.3905357 296.235711,42.2945337 296.347933,44.1611985 C296.57772,48.657194 297.801474,52.8438564 299.976441,56.7318525 C302.065907,60.561182 305.149337,63.7611787 308.9061,65.9851765 C308.259488,71.8145039 306.656318,76.3478327 304.059182,79.5478295 C301.462046,82.7851595 298.255705,84.4598245 294.477567,84.6891576 C291.046783,84.8811574 287.990072,83.3184923 285.243307,80.043829 C282.533949,76.7691656 280.968186,71.8891705 280.626176,65.3771771 C280.166601,57.1105188 281.390354,50.6358586 284.286748,45.9531967 L284.286748,45.99053 L284.292092,45.99053 Z M105.592046,128.038447 C114.361388,126.059783 122.452054,121.814453 129.062459,115.73446 C131.354993,113.638462 133.417738,111.579797 135.245352,109.489133 C135.779742,110.897131 136.356884,112.155797 136.928681,113.259795 C139.370844,117.713124 142.844379,119.617122 147.269129,119.009123 C150.897638,118.513123 153.452023,117.179792 154.868156,115.04646 C156.31101,112.875796 157.310319,108.993133 157.844709,103.313139 C158.57148,96.5451457 159.731106,89.8251524 161.318245,83.2064925 C162.958822,76.3104994 164.829188,70.5931718 166.966748,65.9851765 C169.104308,61.4145144 171.049488,59.0145169 172.802288,58.7851838 C174.100856,58.5985173 174.865034,59.4731831 175.132229,61.3398478 C175.436831,63.7025121 175.629211,68.6518405 175.704026,76.2731661 C175.666619,84.8438241 175.933814,91.3558176 176.543018,95.8144797 C177.269789,101.067808 178.835552,105.41447 181.240307,108.838467 C183.68247,112.267796 186.813996,113.713128 190.704356,113.222462 C194.445086,112.726463 197.042222,111.430464 198.490419,109.297133 C199.938617,107.201135 200.932582,103.238472 201.466972,97.4518114 C202.268557,90.0598189 203.64194,82.9771593 205.58712,76.1558329 C207.537644,69.3398398 209.637797,63.7771787 211.924986,59.4731831 C214.21752,55.1691874 216.125292,52.918523 217.648304,52.7318565 C218.946872,52.5398567 219.71105,53.4145225 219.978245,55.2811873 C220.357662,58.1025178 220.282847,63.2811792 219.748457,70.8598382 C219.251474,79.5104962 219.214067,85.4891568 219.636235,88.7638202 C220.512635,95.3184802 222.72501,100.118475 226.235953,103.163806 C229.746896,106.209136 234.481592,107.318468 240.472105,106.513136 C247.878752,105.52647 254.173867,102.673139 259.442953,97.9051443 C261.810301,95.7718131 264.022676,93.4144822 266.197644,90.8651514 C268.725309,94.3158146 271.915618,97.2278116 275.586878,99.4304761 C280.775805,102.59314 286.921291,103.963805 294.023336,103.585139 C302.41326,103.126472 309.745092,99.7344758 316.040207,93.4518154 C322.346011,87.1264885 326.348592,78.9771634 328.026577,68.9558402 C332.836088,68.5025073 337.415811,67.6651748 341.728339,66.5558426 C341.690932,68.2731742 341.653524,69.9851725 341.653524,71.7025041 C341.653524,82.1024936 342.567332,89.6438193 344.40029,94.3691479 C346.233248,99.0891431 349.402181,101.451807 353.907089,101.451807 C357.567661,101.451807 360.277019,100.459808 361.997755,98.518477 C363.713147,96.5718123 365.204096,92.8011494 366.502664,87.281155 C368.255463,80.0811623 370.617467,73.2225025 373.524549,66.7105091 C376.420944,60.235849 379.247867,54.9771876 382.03204,51.0145249 C384.821556,47.0571956 386.959116,45.0731976 388.524879,45.0731976 C389.818103,45.0731976 390.470059,46.0278633 390.470059,47.8945281 C390.470059,50.4811921 389.743289,56.5025194 388.332499,65.9478432 C386.691921,76.8064989 385.852929,84.614491 385.852929,89.3344863 C385.852929,93.3344822 386.729329,96.3424792 388.524879,98.3638105 C390.315086,100.385142 393.14201,101.371807 397.032369,101.371807 C401.157861,101.371807 404.171821,100.385142 406.004779,98.4384771 C407.837737,96.4971457 408.751544,93.2598156 408.751544,88.8011535 C408.751544,80.8811615 409.093554,73.718502 409.820324,67.2811752 C410.547095,60.8438483 411.460902,54.0278552 412.641904,46.8278625 C413.940472,38.3318711 414.592428,32.5398769 414.592428,29.4572134 C414.592428,25.6865505 413.598462,22.8278867 411.653282,20.849222 C409.702758,18.9078907 406.843772,17.9158917 403.028226,17.9158917 C399.132523,17.9158917 394.819994,19.2865569 390.165457,21.9905542 C385.505575,24.6945515 380.738816,29.2652135 375.891898,35.6278738 C371.044979,41.990534 366.652293,50.2945257 362.761933,60.4278488 C363.216165,55.243854 363.830713,50.8651918 364.514733,47.323862 C365.241503,43.7771989 366.15531,39.6278698 367.341656,34.9025412 C369.094456,28.2785479 370.013607,24.0492188 370.013607,22.1452207 C370.013607,20.507889 369.554031,19.3612235 368.597473,18.7905574 C367.646258,18.2198914 366.005681,17.9158917 363.638333,17.9158917 C359.245646,17.9158917 355.852269,18.7158909 353.447514,20.3158892 C351.005351,21.9158917 349.289959,24.4278851 348.221179,27.857215 C346.238591,34.1132087 344.720924,40.5025355 343.678863,46.9771957 C337.950201,48.6145274 332.873495,49.7185262 328.448745,50.251859 C326.995204,41.2278681 323.37204,33.761209 317.531156,27.857215 C311.695616,21.9532209 304.288969,19.2492237 295.321904,19.7452232 C288.203828,20.0652228 281.342259,22.5025537 275.624285,26.7532161 C269.826153,31.0198784 265.396059,36.769206 262.344691,43.9691987 C259.28798,51.1691914 258.032163,59.24385 258.486395,68.1985076 C258.603961,70.1718389 258.833748,72.0811703 259.175758,73.9478351 C257.267985,76.6891657 255.547249,78.9398301 254.061645,80.6518284 C251.234721,83.963825 248.642929,85.7558232 246.275581,86.0598229 C242.87686,86.5184891 240.856866,84.4224912 240.242317,79.7398293 C239.788086,76.4598326 240.017873,69.5691729 240.856866,59.0891835 C241.845487,46.8225292 242.000461,38.3692044 241.391256,33.8358756 C240.359883,26.2198833 236.047355,22.9452199 228.410921,23.9692189 C222.19062,24.8118847 215.970319,28.9612139 209.675204,36.5025396 C203.412152,44.006532 198.298039,55.3611872 194.370272,70.5558385 C194.445086,68.3851741 194.637467,65.147844 195.016884,60.8065151 C195.930691,50.6731919 196.123071,43.7398656 195.626089,40.006536 C195.091698,36.1612066 193.873289,33.3825427 191.922765,31.7398777 C189.977585,30.102546 186.926218,29.5318799 182.838134,30.102546 C178.72333,30.6358788 174.555087,32.8065433 170.360125,36.5025396 C166.165163,40.2358691 162.269459,45.5318638 158.721109,52.4651901 C155.172759,59.3611832 152.42065,67.5851749 150.512877,77.1478319 C150.283089,71.9265038 150.283089,67.5478416 150.512877,64.0065118 C150.742665,60.4651821 151.127426,56.2731863 151.699223,51.4358578 C152.575623,44.657198 152.880225,40.3105357 152.650438,38.443871 C152.42065,36.8065393 151.811445,35.7398737 150.780072,35.2865408 C149.754043,34.8278746 148.070715,34.753208 145.746118,35.0572077 C141.390838,35.6278738 138.147091,36.8865392 135.934716,38.7905373 C133.759748,40.6945353 132.348958,43.3985326 131.734409,46.9398624 C129.409813,60.235849 129.10521,73.9478351 130.70838,88.0438209 C127.710452,92.7958161 124.060568,97.1051451 119.865606,100.843808 C114.067473,105.979803 108.568599,109.142466 103.379671,110.363798 C95.2890054,112.230463 89.2183339,110.817131 85.0981863,106.209136 C97.9235485,99.7344758 106.548605,93.0358159 110.935947,86.0224896 C115.32329,79.0144967 116.621858,71.5478375 114.7889,63.5851789 C113.223137,56.8065191 109.979389,51.894524 105.020249,48.8438605 C100.055765,45.7985302 94.2576325,45.0358643 87.5777564,46.5985294 C80.0962951,48.3105277 73.8385872,51.894524 68.8366959,57.2651853 C63.8401486,62.6731798 60.4414276,69.14784 58.6832842,76.7638323 C56.9304847,84.3851579 56.967892,92.1558168 58.80085,100.118475 C59.0680451,101.334474 59.4100547,102.475806 59.7520644,103.622472 C53.6065784,107.750468 47.3595582,111.72913 41.0163479,115.54246 C33.3050989,120.150455 30.5957411,121.483787 28.6879685,120.417122 C25.1770256,118.438457 26.7801959,109.563799 28.2658003,101.601141 C37.4252465,52.6145233 38.798629,42.5985334 33.4974793,33.9532088 C32.3859479,32.1238773 27.1596128,23.7025525 18.4971495,22.86522 C12.159283,22.2572206 5.40459228,25.7612171 2.04327862,30.9025452 C-3.33802958,39.1318703 3.22962462,46.6358627 6.62834559,67.2065086 C8.53611821,78.8224969 8.68574743,91.0891512 8.60558892,115.54246 C8.57352551,129.675779 7.96432081,138.28377 13.9494898,142.929099 C20.0949758,147.691761 29.3399244,145.25443 30.2483875,145.025097 C36.4740321,143.313098 39.4879922,139.350436 45.5960709,133.179775 C50.1383867,128.57178 56.8930774,122.246453 66.0899309,115.313127 C69.2214568,120.417122 72.769807,123.238452 75.0569966,124.763784 C86.4715689,132.33711 99.9809503,129.403779 105.517232,128.113114 L105.592046,128.038447 Z" id="lemon8-logo-big" fill="#000000"></path>
    </g>
</svg>